<?xml version="1.0" encoding="UTF-8"?>
<svg width="32px" height="32px" viewBox="0 0 32 32" version="1.1" xmlns="http://www.w3.org/2000/svg" xmlns:xlink="http://www.w3.org/1999/xlink">
    <title>派发</title>
    <g id="正式稿" stroke="none" stroke-width="1" fill="" fill-rule="evenodd">
        <g id="2决策分析" transform="translate(-1336.000000, -32.000000)" fill="">
            <g id="主导航/10个群组栏目" transform="translate(1072.000000, 32.000000)">
                <path d="M275.337,0 L266.663,0 C265.192723,0.00110298409 264.001103,1.19272282 264,2.663 L264,11.337 C264.001103,12.8072772 265.192723,13.998897 266.663,14 L275.337,14 C276.807277,13.998897 277.998897,12.8072772 278,11.337 L278,2.663 C277.973,1.18 276.792,0 275.337,0 Z M275.971,11.592 C275.973765,11.7008578 275.931806,11.8060944 275.854902,11.8831877 C275.777998,11.960281 275.672864,12.0024975 275.564,12 L266.407,12 C266.298136,12.0024975 266.193002,11.960281 266.116098,11.8831877 C266.039194,11.8060944 265.997235,11.7008578 266,11.592 L266,2.408 C266,2.175 266.174,2 266.407,2 L275.593,2 C275.826,2 276,2.175 276,2.408 L276,11.592 L275.97,11.592 L275.971,11.592 Z M293.337,0 L284.663,0 C283.208,0 282,1.201 282,2.71 L282,16.29 C282,17.77 283.18,19 284.663,19 L293.337,19 C294.792,19 296,17.799 296,16.29 L296,2.71 C296,1.201 294.82,0 293.337,0 Z M294,16.59 C294,16.825 293.826,17.0000834 293.593,17.0000834 L284.407,17.0000834 C284.297864,17.0022308 284.192579,16.9596509 284.115676,16.882181 C284.038773,16.8047112 283.996968,16.6991167 284,16.59 L284,2.41 C284,2.175 284.174,2 284.407,2 L293.593,2 C293.826,2 294,2.175 294,2.41 L294,16.59 Z M275.337,18 L266.663,18 C265.191457,18.0027578 264,19.1964547 264,20.668 L264,29.332 C264,30.8035453 265.191457,31.9972422 266.663,32 L275.337,32 C276.808543,31.9972422 278,30.8035453 278,29.332 L278,20.64 C277.973,19.183 276.792,18 275.337,18 Z M275.971,29.593 C275.973776,29.7017704 275.931788,29.8069133 275.854851,29.8838506 C275.777913,29.960788 275.67277,30.0027761 275.564,30 L266.407,30 C266.29823,30.0027761 266.193087,29.960788 266.116149,29.8838506 C266.039212,29.8069133 265.997224,29.7017704 266,29.593 L266,20.407 C266,20.174 266.174,20 266.407,20 L275.593,20 C275.826,20 276,20.174 276,20.407 L276,29.593 L275.97,29.593 L275.971,29.593 Z M293.337,24 L284.663,24 C283.208,24 282,25.162 282,26.622 L282,29.378 C282,30.811 283.18,32 284.663,32 L293.337,32 C294.792,32 296,30.838 296,29.378 L296,26.595 C296,25.162 294.82,24 293.337,24 Z M294,29.573 C294,29.817 293.826,30 293.593,30 L284.407,30 C284.174,30 284,29.817 284,29.573 L284,26.427 C284,26.183 284.174,26 284.407,26 L293.593,26 C293.826,26 294,26.183 294,26.427 L294,29.573 Z" id="派发"></path>
            </g>
        </g>
    </g>
</svg>