<?xml version="1.0" encoding="UTF-8"?>
<svg width="32px" height="32px" viewBox="0 0 32 32" version="1.1" xmlns="http://www.w3.org/2000/svg" xmlns:xlink="http://www.w3.org/1999/xlink">
    <title>主页</title>
    <g id="正式稿" stroke="none" stroke-width="1" fill="" fill-rule="evenodd">
        <g id="2决策分析" transform="translate(-1088.000000, -32.000000)" fill="">
            <g id="主导航/10个群组栏目" transform="translate(1072.000000, 32.000000)">
                <path d="M42.0215967,16 C42.77203,16 43.0121687,16.65 43.0101799,17.001 L43.0101799,29.031 C43.0101799,30.951 41.9645638,32 40.0444551,32 L37.0177074,32 C35.0975987,32 34.0059684,30.95 34.0059684,29.031 L34.0059684,23.01 C34.0009655,22.554 33.80085,22.002 33.1284617,22.002 L30.9081797,22.002 C30.4459128,22.005 30.0096609,22.551 30.0106615,23.01 L30.0106615,29.031 C30.0106615,30.951 28.9350404,32 27.0149317,32 L23.9971893,32 C22.0770806,32 21.005459,30.95 21.005459,29.031 L21.005459,17.001 C21.0044613,16.651 21.2656121,16 22.0060396,16 C22.75147,16 22.9996133,16.65 22.9996133,17.001 L22.9996133,29.031 C22.9996133,29.491 23.5379241,30.01 23.9971893,30.01 L27.0139312,30.01 C27.4751975,30.007 28.0185112,29.49 28.0185112,29.031 L28.0185112,23.01 C28.0185112,21.09 28.8890139,19.997 30.8091225,19.997 L33.2195143,19.997 C35.139623,19.997 36.0171297,21.089 36.0171297,23.01 L36.0171297,29.031 C36.0171297,29.491 36.5574417,30.01 37.0177074,30.01 L40.0444551,30.01 C40.5057214,30.007 41.0120138,29.49 41.0120138,29.031 L41.0120138,17.001 C41.0100126,16.651 41.253153,16 42.0225973,16 L42.0215967,16 Z M32.0338297,0 L32.0678493,0.002 C32.323252,0.0180149402 32.562963,0.130649804 32.7382364,0.317 L32.6721983,0.25 L32.6922098,0.269 L47.700876,14.3 C48.0880735,14.6804284 48.1010269,15.3000616 47.730066,15.6963209 C47.359105,16.0925803 46.7396235,16.1208386 46.3340868,15.76 L32.0078147,2.37 L17.6835437,15.76 C17.315659,16.1044514 16.748829,16.1215922 16.36078,15.8 L16.2697274,15.713 C15.89247,15.3097679 15.9135201,14.6772859 16.3167545,14.3 L31.3254207,0.27 C31.3313551,0.264260719 31.337359,0.258593635 31.3434311,0.253 L31.2773929,0.317 C31.4669866,0.115580549 31.7311171,0.000948978995 32.0078147,0 L32.0338297,0 Z" id="主页"></path>
            </g>
        </g>
    </g>
</svg>