<?xml version="1.0" encoding="UTF-8"?>
<svg width="32px" height="32px" viewBox="0 0 32 32" version="1.1" xmlns="http://www.w3.org/2000/svg" xmlns:xlink="http://www.w3.org/1999/xlink">
    <title>进度</title>
    <g id="正式稿" stroke="none" stroke-width="1" fill="" fill-rule="evenodd">
        <g id="2决策分析" transform="translate(-1460.000000, -32.000000)" fill="">
            <g id="主导航/10个群组栏目" transform="translate(1072.000000, 32.000000)">
                <path d="M404.857143,0.571428571 L404.857143,15.1428571 L419.428571,15.1428571 L419.428571,16.2857143 C419.428571,18.4071429 419.014286,20.4642857 418.192857,22.4035714 C417.4,24.275 416.267857,25.9571429 414.825,27.3964286 C413.382143,28.8357143 411.7,29.9714286 409.832143,30.7642857 C407.892857,31.5857143 405.835714,32 403.714286,32 C401.592857,32 399.535714,31.5857143 397.596429,30.7642857 C395.725,29.9714286 394.042857,28.8392857 392.603571,27.3964286 C391.164286,25.9535714 390.028571,24.2714286 389.235714,22.4035714 C388.414286,20.4642857 388,18.4071429 388,16.2857143 C388,14.1642857 388.414286,12.1071429 389.235714,10.1678571 C390.028571,8.29642857 391.160714,6.61428571 392.603571,5.175 C394.046429,3.73571429 395.728571,2.6 397.596429,1.80714286 C399.535714,0.985714286 401.592857,0.571428571 403.714286,0.571428571 L404.857143,0.571428571 Z M402.571429,2.90357143 C395.7,3.48571429 390.285714,9.26785714 390.285714,16.2857143 C390.285714,23.6892857 396.310714,29.7142857 403.714286,29.7142857 C410.732143,29.7142857 416.514286,24.3 417.096429,17.4285714 L402.571429,17.4285714 L402.571429,2.90357143 Z M408.571429,0 C411.625,0 414.492857,1.18928571 416.653571,3.34642857 C418.810714,5.50714286 420,8.375 420,11.4285714 L420,12.5714286 L407.428571,12.5714286 L407.428571,0 L408.571429,0 Z M409.714286,2.35714286 L409.714286,10.2857143 L417.642857,10.2857143 C417.125,6.15714286 413.842857,2.875 409.714286,2.35714286 Z" id="进度"></path>
            </g>
        </g>
    </g>
</svg>