<?xml version="1.0" standalone="no"?><!DOCTYPE svg PUBLIC "-//W3C//DTD SVG 1.1//EN" "http://www.w3.org/Graphics/SVG/1.1/DTD/svg11.dtd"><svg t="1642239577127" class="icon" viewBox="0 0 1024 1024" version="1.1" xmlns="http://www.w3.org/2000/svg" p-id="3394" xmlns:xlink="http://www.w3.org/1999/xlink" width="32" height="32"><defs><style type="text/css"></style></defs><path d="M512 853.333333c-12.8 0-25.6-1.422222-38.4-5.688889l-186.311111-61.155555c-11.377778-4.266667-19.911111-14.222222-19.911111-27.022222V512c0-15.644444 12.8-28.444444 28.444444-28.444444s28.444444 12.8 28.444445 28.444444v227.555556l167.822222 54.044444c14.222222 4.266667 28.444444 4.266667 42.666667 0L702.577778 739.555556V512c0-15.644444 12.8-28.444444 28.444444-28.444444s28.444444 12.8 28.444445 28.444444v247.466667c0 12.8-8.533333 22.755556-19.911111 27.022222l-186.311112 61.155555c-15.644444 4.266667-28.444444 5.688889-41.244444 5.688889z" fill="#3FA6AD" p-id="3395"></path><path d="M512 645.688889c-11.377778 0-24.177778-2.844444-34.133333-9.955556L133.688889 453.688889l-1.422222-1.422222c-11.377778-7.111111-18.488889-19.911111-18.488889-34.133334s7.111111-25.6 18.488889-34.133333l1.422222-1.422222 344.177778-182.044445c21.333333-12.8 46.933333-12.8 68.266666 0L890.311111 384l1.422222 1.422222c11.377778 7.111111 18.488889 19.911111 18.488889 34.133334s-7.111111 25.6-18.488889 34.133333l-1.422222 1.422222-344.177778 180.622222c-9.955556 7.111111-22.755556 9.955556-34.133333 9.955556z m-322.844444-227.555556l315.733333 167.822223 1.422222 1.422222c2.844444 1.422222 5.688889 1.422222 8.533333 0l1.422223-1.422222 315.733333-167.822223-314.311111-167.822222-1.422222-1.422222c-2.844444-1.422222-5.688889-1.422222-8.533334 0l-1.422222 1.422222-317.155555 167.822222z" fill="#DC4569" p-id="3396"></path><path d="M876.088889 780.8c-15.644444 0-28.444444-12.8-28.444445-28.444444V548.977778c0-15.644444 12.8-28.444444 28.444445-28.444445s28.444444 12.8 28.444444 28.444445v203.377778c0 15.644444-12.8 28.444444-28.444444 28.444444z" fill="#3FA6AD" p-id="3397"></path><path d="M620.088889 446.577778H403.911111c-15.644444 0-28.444444-12.8-28.444444-28.444445s12.8-28.444444 28.444444-28.444444h217.6c15.644444 0 28.444444 12.8 28.444445 28.444444s-14.222222 28.444444-29.866667 28.444445z" fill="#DC4569" p-id="3398"></path></svg>